<!-- docs/brand/icon-flower.svg -->
<svg
  xmlns="http://www.w3.org/2000/svg"
  viewBox="0 0 24 24"
  fill="none"
  stroke="currentColor"
  stroke-width="1.5"
  stroke-linecap="round"
  stroke-linejoin="round"
>
  <!-- Top petal -->
  <path
    d="
      M12 4.5
      C10.8 5.7 10.4 7.3 12 9
      C13.6 7.3 13.2 5.7 12 4.5
      Z
    "
  />

  <!-- Upper right petal -->
  <path
    d="
      M17.1 8.2
      C15.4 8.1 14.1 8.9 13.7 11.2
      C15.9 11.1 17 10.1 17.1 8.2
      Z
    "
  />

  <!-- Lower right petal -->
  <path
    d="
      M15.2 16.4
      C14.1 15.1 12.7 14.7 11 15.9
      C12.4 17.5 13.9 17.7 15.2 16.4
      Z
    "
  />

  <!-- Lower left petal -->
  <path
    d="
      M8.8 16.4
      C10.1 15.1 11.5 14.7 13 15.9
      C11.7 17.5 10.2 17.7 8.8 16.4
      Z
    "
  />

  <!-- Upper left petal -->
  <path
    d="
      M6.9 8.2
      C8.6 8.1 9.9 8.9 10.3 11.2
      C8.1 11.1 7 10.1 6.9 8.2
      Z
    "
  />

  <!-- Seed -->
  <circle
    cx="12"
    cy="12"
    r="2"
    fill="currentColor"
    stroke="none"
  />
</svg>