<!-- docs/brand/icon-pact.svg -->
<svg
  xmlns="http://www.w3.org/2000/svg"
  viewBox="0 0 24 24"
  fill="none"
  stroke="currentColor"
  stroke-width="1.5"
  stroke-linecap="round"
  stroke-linejoin="round"
>
  <!-- Left ring -->
  <path
    d="
      M9 5.5
      C6.24 5.5 4 7.74 4 10.5
      C4 13.26 6.24 15.5 9 15.5
      C11.76 15.5 14 13.26 14 10.5
    "
  />

  <path
    d="
      M14 10.5
      C14 7.74 11.76 5.5 9 5.5
    "
  />

  <!-- Right ring -->
  <path
    d="
      M15 8.5
      C12.24 8.5 10 10.74 10 13.5
      C10 16.26 12.24 18.5 15 18.5
      C17.76 18.5 20 16.26 20 13.5
    "
  />

  <path
    d="
      M20 13.5
      C20 10.74 17.76 8.5 15 8.5
    "
  />

  <!-- Over/under cut cues -->
  <path d="M11.9 9.9 L13.1 8.7" />
  <path d="M10.9 15.3 L12.1 14.1" />
</svg>